<?xml version="1.0" encoding="UTF-8" standalone="no"?>
<!-- Created with Inkscape (http://www.inkscape.org/) -->

<svg
   width="22mm"
   height="22mm"
   viewBox="0 0 22 22"
   version="1.1"
   id="svg1"
   xmlns="http://www.w3.org/2000/svg"
   xmlns:svg="http://www.w3.org/2000/svg">
  <defs
     id="defs1" />
  <g
     id="kauk09"
     transform="translate(-21.431194,-219.43161)">
    <rect
       style="fill:#035445;fill-opacity:1;stroke:#000000;stroke-width:2;stroke-linejoin:miter;stroke-dasharray:none;stroke-opacity:1;paint-order:markers stroke fill"
       id="rect267"
       width="20"
       height="20"
       x="22.431194"
       y="220.43161" />
    <circle
       style="fill:#ffffff;fill-opacity:1;stroke:none;stroke-width:1.42105;stroke-linejoin:miter;stroke-dasharray:none;stroke-opacity:1;paint-order:markers stroke fill"
       id="circle267"
       cx="40.756374"
       cy="222.18111"
       r="0.61646682" />
    <circle
       style="fill:#ffffff;fill-opacity:1;stroke:none;stroke-width:1.42105;stroke-linejoin:miter;stroke-dasharray:none;stroke-opacity:1;paint-order:markers stroke fill"
       id="circle268"
       cx="40.756374"
       cy="224.21422"
       r="0.61646682" />
    <rect
       style="fill:#ffffff;fill-opacity:1;stroke:none;stroke-width:1.37354;stroke-linejoin:miter;stroke-dasharray:none;stroke-opacity:1;paint-order:markers stroke fill"
       id="rect269"
       width="20.398878"
       height="1.0558398"
       x="22.878666"
       y="242.89488"
       transform="matrix(0.98044612,-0.19678772,0,1,0,0)" />
    <rect
       style="fill:#ffffff;fill-opacity:1;stroke:none;stroke-width:1.37354;stroke-linejoin:miter;stroke-dasharray:none;stroke-opacity:1;paint-order:markers stroke fill"
       id="rect270"
       width="20.398878"
       height="1.0558398"
       x="-43.27755"
       y="229.87659"
       transform="matrix(-0.98044612,-0.19678772,0,1,0,0)" />
    <path
       d="m 31.464569,231.26351 v 0.7098 0.70965 h 0.9855 0.9855 l -0.0227,-0.68769 -0.0227,-0.68771 -0.96278,-0.0219 z"
       id="path446"
       style="fill:#ffffff;stroke-width:0.297049" />
    <path
       d="m 32.385439,221.76065 c -0.0169,0.0204 -0.42036,1.46936 -0.89646,3.22007 l -0.865607,3.18306 0.18328,0.15719 c 0.34649,0.29714 0.655587,1.324 0.657307,2.18345 l 5.9e-4,0.29719 0.96278,-0.0221 0.96278,-0.0221 0.019,-0.39297 c 0.0475,-0.97519 0.31201,-1.79067 0.65976,-2.03425 l 0.17009,-0.11917 -0.8515,-3.1467 c -0.8092,-2.99076 -0.93024,-3.39001 -1.00207,-3.30372 z"
       id="path447"
       style="fill:#ffffff;stroke-width:0.297049" />
  </g>
</svg>
